<svg xmlns="http://www.w3.org/2000/svg" viewBox="0 0 37.72 37.62"><defs><style>.cls-1{fill:#fff;opacity:0.5;}</style></defs><title>Asset 2</title><g id="Layer_2" data-name="Layer 2"><g id="nav"><path class="cls-1" d="M37.63,17.24V8.4A8.33,8.33,0,0,0,29.3.07H20.19C19.75,0,19.31,0,18.86,0S18,0,17.53.07H8.42A8.33,8.33,0,0,0,.08,8.4v8.84C0,17.78,0,18.31,0,18.86S0,20,.08,20.62v8.67a8.33,8.33,0,0,0,8.34,8.33h7.85V22.77H10.73V18.28h5.55V13.79A6.43,6.43,0,0,1,22.7,7.37H27v4.49H22.7a1.94,1.94,0,0,0-1.93,1.93v4.49h6v4.49h-6V37.62H29.3a8.33,8.33,0,0,0,8.33-8.33V20.58a16.37,16.37,0,0,0,.09-1.72C37.72,18.31,37.68,17.78,37.63,17.24Z"/></g></g></svg>