<svg xmlns="http://www.w3.org/2000/svg" viewBox="0 0 37.72 37.62"><defs><style>.cls-1{fill:#fff;opacity:0.5;}</style></defs><title>Asset 3</title><g id="Layer_2" data-name="Layer 2"><g id="nav"><path class="cls-1" d="M18.86,15.65a3.2,3.2,0,1,0,3.19,3.19A3.2,3.2,0,0,0,18.86,15.65Z"/><path class="cls-1" d="M26,9H11.77a2.72,2.72,0,0,0-2.72,2.72V25.93a2.72,2.72,0,0,0,2.72,2.72H26a2.72,2.72,0,0,0,2.72-2.72V11.76A2.72,2.72,0,0,0,26,9ZM18.86,25.21a6.37,6.37,0,1,1,6.37-6.37A6.37,6.37,0,0,1,18.86,25.21Zm6.23-11.52a1.46,1.46,0,1,1,1.46-1.46A1.46,1.46,0,0,1,25.09,13.69Z"/><path class="cls-1" d="M37.63,17.24V8.4A8.33,8.33,0,0,0,29.3.07H20.19C19.75,0,19.31,0,18.86,0S18,0,17.53.07H8.42A8.33,8.33,0,0,0,.08,8.4v8.84C0,17.78,0,18.31,0,18.86S0,20,.08,20.62v8.67a8.33,8.33,0,0,0,8.34,8.33H29.3a8.33,8.33,0,0,0,8.33-8.33V20.58a16.37,16.37,0,0,0,.09-1.72C37.72,18.31,37.68,17.78,37.63,17.24Zm-5.79,8.69A5.9,5.9,0,0,1,26,31.83H11.77a5.9,5.9,0,0,1-5.89-5.9V11.76a5.9,5.9,0,0,1,5.89-5.9H26a5.9,5.9,0,0,1,5.89,5.9Z"/></g></g></svg>