<svg xmlns="http://www.w3.org/2000/svg" viewBox="0 0 223.65 64.24"><defs><style>.cls-1,.cls-2,.cls-5{fill:#fff;}.cls-2{opacity:0.6;font-size:6.83px;}.cls-2,.cls-5{font-family:Futura-Bold, Futura;font-weight:700;}.cls-3{letter-spacing:0.02em;}.cls-4{letter-spacing:0.02em;}.cls-5{opacity:0.8;font-size:7.88px;}.cls-6{letter-spacing:-0.12em;}.cls-7{letter-spacing:0.02em;}.cls-8{letter-spacing:0.04em;}.cls-9{letter-spacing:0.04em;}.cls-10{letter-spacing:-0.02em;}.cls-11{letter-spacing:0.02em;}.cls-12{letter-spacing:-0.04em;}.cls-13{letter-spacing:0.02em;}</style></defs><title>Asset 1</title><g id="Layer_2" data-name="Layer 2"><g id="Layer_1-2" data-name="Layer 1"><path class="cls-1" d="M17.71,43.62V33H7.77V43.62H0v-28H7.77V26.27h9.94V15.58h7.84v28Z"/><path class="cls-1" d="M50.05,44.49a14.71,14.71,0,0,1-5.82-1.16,14.85,14.85,0,0,1-7.93-7.88,14.75,14.75,0,0,1,0-11.56,14.87,14.87,0,0,1,3.2-4.72A15.49,15.49,0,0,1,44.23,16a15,15,0,0,1,11.62,0,15.47,15.47,0,0,1,4.75,3.18,14.87,14.87,0,0,1,3.2,4.72,14.86,14.86,0,0,1,0,11.56,14.79,14.79,0,0,1-7.95,7.88A14.72,14.72,0,0,1,50.05,44.49Zm0-22.52a7,7,0,0,0-2.95.64,7.44,7.44,0,0,0-2.33,1.68,7.76,7.76,0,0,0-1.53,2.44,7.65,7.65,0,0,0-.56,2.94,7.65,7.65,0,0,0,4.42,7.07,6.94,6.94,0,0,0,2.95.63A6.87,6.87,0,0,0,53,36.74a7.51,7.51,0,0,0,3.87-4.14,8,8,0,0,0,.56-2.93,7.85,7.85,0,0,0-.56-2.94,7.61,7.61,0,0,0-1.54-2.44A7.32,7.32,0,0,0,53,22.61,6.87,6.87,0,0,0,50.05,22Z"/><path class="cls-1" d="M90.92,43.62,86,35H81.31l0,8.67H73.61v-28H87.67a5.89,5.89,0,0,1,2.06.38,10,10,0,0,1,2,1,12.51,12.51,0,0,1,1.81,1.43A11.5,11.5,0,0,1,95,20a7.9,7.9,0,0,1,1.1,2.44,10.22,10.22,0,0,1,.38,2.66,8.06,8.06,0,0,1-1,3.9,8.75,8.75,0,0,1-2.71,3l6.58,11.56ZM85.46,21.83H81.09v6h4.37a3.13,3.13,0,0,0,1.23-.23,3,3,0,0,0,1-.65,3.09,3.09,0,0,0,.69-.95,2.71,2.71,0,0,0,.25-1.18,2.76,2.76,0,0,0-.25-1.19,3.22,3.22,0,0,0-.69-.95,3.13,3.13,0,0,0-1-.65A3.32,3.32,0,0,0,85.46,21.83Z"/><path class="cls-1" d="M109.46,43.62v-28H117v28Z"/><path class="cls-1" d="M129.84,43.62V42.36l10.91-19.59H129V15.58h23.3v1.26L141.4,36.43h11.17v7.19Z"/><path class="cls-1" d="M175.37,44.49a14.71,14.71,0,0,1-5.82-1.16,14.85,14.85,0,0,1-7.93-7.88,14.75,14.75,0,0,1,0-11.56,14.87,14.87,0,0,1,3.2-4.72A15.49,15.49,0,0,1,169.55,16a15,15,0,0,1,11.62,0,15.47,15.47,0,0,1,4.75,3.18,14.87,14.87,0,0,1,3.2,4.72,14.86,14.86,0,0,1,0,11.56,14.79,14.79,0,0,1-8,7.88A14.72,14.72,0,0,1,175.37,44.49Zm0-22.52a7,7,0,0,0-3,.64,7.44,7.44,0,0,0-2.33,1.68,7.76,7.76,0,0,0-1.53,2.44,7.65,7.65,0,0,0-.56,2.94,7.65,7.65,0,0,0,4.42,7.07,6.94,6.94,0,0,0,3,.63,6.87,6.87,0,0,0,2.94-.63,7.42,7.42,0,0,0,3.87-4.14,8,8,0,0,0,.56-2.93,7.85,7.85,0,0,0-.56-2.94,7.76,7.76,0,0,0-1.53-2.44,7.48,7.48,0,0,0-2.34-1.68A6.87,6.87,0,0,0,175.37,22Z"/><path class="cls-1" d="M216.13,43.58l-9.72-15v15h-7.48v-28h7.44l9.76,15.1V15.58h7.52v28Z"/><text class="cls-2" transform="translate(81.51 5.99)"><tspan class="cls-3">A</tspan><tspan x="5.62" y="0">S</tspan><tspan class="cls-3" x="10.03" y="0">CE PRESEN</tspan><tspan class="cls-4" x="49.95" y="0">T</tspan><tspan class="cls-3" x="53.74" y="0">S:</tspan></text><text class="cls-5" transform="translate(51.41 61.53)"><tspan class="cls-6">1</tspan><tspan class="cls-7" x="4.42" y="0">.</tspan><tspan class="cls-8" x="7.25" y="0">2</tspan><tspan class="cls-9" x="12.91" y="0">4</tspan><tspan class="cls-7" x="18.58" y="0">.2</tspan><tspan class="cls-10" x="26.94" y="0">0</tspan><tspan x="32.14" y="0">2</tspan><tspan class="cls-11" x="37.51" y="0" xml:space="preserve">0  |  RIM</tspan><tspan class="cls-12" x="76" y="0">A</tspan><tspan class="cls-7" x="82.01" y="0">C ARE</tspan><tspan class="cls-13" x="107.15" y="0">N</tspan><tspan class="cls-7" x="114.5" y="0">A</tspan></text></g></g></svg>