<svg xmlns="http://www.w3.org/2000/svg" xmlns:xlink="http://www.w3.org/1999/xlink" viewBox="0 0 1670.93 235.3"><defs><style>.cls-1{fill:none;}.cls-2{clip-path:url(#clip-path);}.cls-3{fill:url(#linear-gradient);}.cls-4{fill:url(#linear-gradient-2);}.cls-5{fill:url(#linear-gradient-3);}.cls-6{fill:url(#linear-gradient-4);}.cls-7{fill:url(#linear-gradient-5);}.cls-8{fill:url(#linear-gradient-6);}.cls-9{fill:url(#linear-gradient-7);}.cls-10{fill:url(#linear-gradient-8);}.cls-11{fill:url(#linear-gradient-9);}</style><clipPath id="clip-path" transform="translate(0 -7.34)"><rect class="cls-1" x="204.1" /></clipPath><linearGradient id="linear-gradient" x1="826.17" y1="187.74" x2="826.17" y2="7.34" gradientUnits="userSpaceOnUse"><stop offset="0.31" stop-color="#fff"/><stop offset="1" stop-color="#cfd1d3"/></linearGradient><linearGradient id="linear-gradient-2" x1="644.04" y1="123.83" x2="644.04" y2="18.2" gradientUnits="userSpaceOnUse"><stop offset="0.33" stop-color="#ccd1df"/><stop offset="0.81" stop-color="#909fbd"/></linearGradient><linearGradient id="linear-gradient-3" x1="1078.19" y1="172.57" x2="1072.6" y2="12.58" gradientUnits="userSpaceOnUse"><stop offset="0" stop-color="#fff"/><stop offset="1" stop-color="#526c9c"/></linearGradient><linearGradient id="linear-gradient-4" x1="1145.76" y1="172.34" x2="1131.92" y2="40.67" gradientUnits="userSpaceOnUse"><stop offset="0.15" stop-color="#656582"/><stop offset="0.94" stop-color="#182952"/></linearGradient><linearGradient id="linear-gradient-5" x1="506.43" y1="332.83" x2="575.02" y2="35.72" gradientUnits="userSpaceOnUse"><stop offset="0.23" stop-color="#65678c"/><stop offset="0.87" stop-color="#203365"/></linearGradient><linearGradient id="linear-gradient-6" x1="237.97" y1="226.67" x2="307.34" y2="36.08" gradientUnits="userSpaceOnUse"><stop offset="0.15" stop-color="#6e6c7d"/><stop offset="0.85" stop-color="#131d34"/></linearGradient><linearGradient id="linear-gradient-7" x1="179.97" y1="218.37" x2="266.6" y2="55.44" gradientUnits="userSpaceOnUse"><stop offset="0.08" stop-color="#34353d"/><stop offset="0.8" stop-color="#111620"/></linearGradient><linearGradient id="linear-gradient-8" x1="685.33" y1="193.42" x2="676.98" y2="98.07" gradientUnits="userSpaceOnUse"><stop offset="0.55" stop-color="#33364a"/><stop offset="1" stop-color="#131d34"/></linearGradient><linearGradient id="linear-gradient-9" x1="1180.43" y1="303.89" x2="1138.81" y2="41.09" gradientUnits="userSpaceOnUse"><stop offset="0" stop-color="#45454c"/><stop offset="1" stop-color="#111620"/></linearGradient></defs><title>Asset 2</title><g id="Layer_2" data-name="Layer 2"><g id="Layer_1-2" data-name="Layer 1"><g class="cls-2"><path class="cls-3" d="M168.55,21.64c23.6,0,116.34-5.73,116.34-5.73h8.43l106.23,5.73h84.31l74.58,2.86H689.58l43.84-8.59s12.05-1.43,20.36,0,33.59-.63,33.59-.63H823s111.12.79,116.18,0,33.72,2.22,38.78,0,57.33.52,62.39-.14,64.08,2,75.88-.75,33.72-4.91,40.47-4.91h107.91s27-2.87,45.53,0a260.07,260.07,0,0,0,50.59,2.86c13.49-.72,25.29-4.69,40.46-4.14s42.16,0,42.16,0h20.23s5.06.82,18.55,0,32-1.32,38.78,0,29,2,48.25,2,73.16-2.85,73.16-2.85L1601.8,81l-57.33,53.36-242.81,53.37s-806-27.57-814.43-29.24-438.4-29.56-438.4-29.56S-3.45,87.45,13.42,81,136.51,28.07,144.94,26.64,168.55,21.64,168.55,21.64Z" transform="translate(0 -7.34)"/><path class="cls-4" d="M379.32,29.44c8.43.71,54-.72,109.6,4.29s69.52,7.9,69.52,7.9-.39-.69,28.28,0,3.37,1.4,28.66.68-3.37,1.43,25.3-.71S655.85,40.46,711.5,36s28.66-.15,70.82-6.58S769.54,32,824.47,23c64.67-10.62,101-.3,101-.3s39.3,3.76,44.36,9S929,53.76,929,53.76l28.67,27.9s-352.27,46.49-357.4,41.84-221-38.27-221-38.27-47.21,3-47.21-10.67-32-19.37,0-27.24S379.32,29.44,379.32,29.44Z" transform="translate(0 -7.34)"/><path class="cls-5" d="M519.27,79.36c16.86-2.14,107.92-13.59,126.47-15.74s15.17-4.29,50.58-5.72,72.51-5.69,72.51-5.69,6.74,5,32-4.32-11.8-5.73,25.3-9.3,40-3.58,53.71-5.73,13.8-5,40.74-8.58,0-2.86,26.95-3.58,8.43-.71,27-.71,20.23,5.72,45.53,0,8.43-2.86,25.29-5.72,42.15,0,42.15,0,3.38,1.59,16.87,3.57,0,0,35.14-.71c21.39-.44-3.11-4.82,30.62-2.15s30.35-.71,48.9-.71,3.37,2.86,18.55,0-11.81-3.23,45.53-3.44,25.28-.14,37.09-.14h35.41c25.29,0,10.12,3.58,33.72,4.29s5.06,0,32,0,10.12-3.58,23.61-2.15-33.73-3.49,6.74-2.46,50.59-.19,60.7,1-43.56-3,0,0c41.36,2.87,34.26-1.43,44.11-.71s23.34-10.73,35.14,5,40.47,83,40.47,83l-138.27,59.37H1149.06s-349.88,6.34-356.63,4.6-145-5.32-145-5.32-46.09-4.53-66.88-21.94-62.95-26-61.27-32.42S519.27,79.36,519.27,79.36Z" transform="translate(0 -7.34)"/><path class="cls-6" d="M1509.06,54s-54-2-62.39-5.65-25.29-2.94-30.35-5.8-5.06-4.29-13.49-4.29h-92.74s-25.29,2.86-45.53,5-32,2.86-32,2.86l-40.47,2.22s-10.12,3.65-27,3.93-42.16,6-55.64,6h-25.3s-18.55,1.43-23.6,0-5.06-2.15-11.81-2.86-6.74,0-18.55,0-27.49,2.7-37.35,3.5-18.29,2.94-28.41,2.94-15.17-.72-30.35,0-15.17,1.43-25.29,4.29,0,5-21.92,5-18.55-.72-28.67,0S843,70.42,832.9,74s-1.68,2.14-10.12,3.57,0,1.44-18.54,4.3-15.18.71-38.79,5.72S725,114.41,725,114.41L770.51,143s416.49.31,468.76,0,141.64,4.6,182.11,0,138.36-8.89,132.41-33.22.8-36.48-11-40.77S1509.06,54,1509.06,54Z" transform="translate(0 -7.34)"/><path class="cls-7" d="M945.88,109.59s-57.8.71-66-2.86-1.45,2-16.63-3.29-31.7-4.58-40.3-6-23.77,5-37.26,0S762.33,93.85,753.78,91s-5.19-2.86-18.68-2.86H713.18s1.69,5-15.17,0-18.55-5-27-7.16,1.68-3.57-16.86-3.57-18.55,2.86-40.47,0-3.37.71-21.92-2.86-5.06-2.15-28.67-6.44S532.76,62.53,527.7,61s-1.68,2.79-20.23-3.65-20.24-10.68-35.41-12.14-6.75,2.84-28.67-3.6,0-2.15-21.92-6.44-16.86-3.57-28.66-5-21.75-.71-23.52-2.14,16.77-3.58-20.32-3.58-40.47-1.43-65.76,0-24.72-2-41.87-.63-21-2-29.54-.33,2.27-1.2-26.39-.48S118,4.18,134.82,22.9s27,48.77,28.67,52.35S148.31,194,148.31,194l-21.92,39.34,462,9.3S925.64,217.36,956,202.82s48.9-19.55,20.24-41.73S945.88,109.59,945.88,109.59Z" transform="translate(0 -7.34)"/><path class="cls-8" d="M189.87,43.37s172.63,22.36,190.81,27,14.53,5.4,45.43,16.19,74.5,17.73,92.67,27,52.7,23,34.53,24.24-223.52,32.81-223.52,32.81-177-9.43-208.9-11.09-101.84,8-92.75-25.91-67-39.32-.81-54.74,24.43-17,84.4-16.19S189.87,43.37,189.87,43.37Z" transform="translate(0 -7.34)"/><path class="cls-9" d="M197.28,85.57s70.82,7.87,84.31,10,15.17,1.43,33.72,8.58,30.35,11.45,40.47,13.59,13.65,6.44,33.8,8.94,30.27,10.69,30.27,10.69L308.56,162.11S59,159.25,55.64,152.1,32,97.73,55.64,92s38.78-7.87,77.56-6.44S197.28,85.57,197.28,85.57Z" transform="translate(0 -7.34)"/><path class="cls-10" d="M900.35,101.18s-52.11-10-77.4-10H768.83c-16.87,0-47.22,5.72-57.33,7.15s-3.38,2.86-21.92,2.86-20.24-2.15-40.47,0-10.12-.84-35.41,3.15-28.67,2.57-52.27,5.43-59,10-59,10l-74.19,10L370.89,143s-11.81,19.72,28.66,20.44,514.29,10,514.29,10,45.53-5.72,62.39-10.73,18.54-23.61,15.17-28.26S900.35,101.18,900.35,101.18Z" transform="translate(0 -7.34)"/><path class="cls-11" d="M1584.94,58.26c-8.43-.71-33.72-3.58-55.65-4.29s-48.89,2.14-57.33,0-35.41-2.38-43.84-.12-8.43,5.13-23.6,4.41-15.18.94-40.47.11-35.41-.84-40.47.24-32,5.37-32,5.37a156.78,156.78,0,0,1-25.29,4.3c-15.18,1.43-45.53,3.57-45.53,3.57s-20.23-5-42.15,0-28.67,6.44-42.16,7.16-20.23,2.14-28.66,3.57-40.47,7.16-50.59,7.16-13.49-1.44-25.29,0-13.49-2.87-27,0A175.77,175.77,0,0,1,967.8,94H930.7s-32.5-2.86-50.82,0-8.2,1.43-43.61,5.72-62.39,4.58-62.39,4.58-16.86-5.43-28.66,0-30.35,9-30.35,9L693,115.72s-30.35,6.92-38.78,8.35-27,14.31-27,14.31,53.95,35.05,53.95,37.91,113,52.94,128.15,55.08,478.88-5.72,512.6-5.72,129.84-2.15,172-2.15,148.39,24.33,156.82-2.14,20.23-148.08,20.23-148.08Z" transform="translate(0 -7.34)"/></g></g></g></svg>