<svg xmlns="http://www.w3.org/2000/svg" viewBox="0 0 41.08 41.08"><defs><style>.cls-1{fill:#fff;opacity:0.5;}</style></defs><title>Asset 1</title><g id="Layer_2" data-name="Layer 2"><g id="nav"><path class="cls-1" d="M33.11,0H8A8,8,0,0,0,0,8V33.11a8,8,0,0,0,8,8H33.11a8,8,0,0,0,8-8V8A8,8,0,0,0,33.11,0ZM23.18,28.66A13.85,13.85,0,0,1,20.52,31a12.14,12.14,0,0,1-2.68-2.39A5.1,5.1,0,0,1,16.43,25a1.8,1.8,0,0,1,.32-.8c1.31-1.8,6.9-1.9,7.8.43a2.14,2.14,0,0,1,.12.59A5.31,5.31,0,0,1,23.18,28.66ZM35.4,28a6.53,6.53,0,0,1-1.17,2.87C33,32.55,30.75,33.82,28,34.64a7,7,0,0,0,2.79-2.13,4.8,4.8,0,0,0,.88-2.15c.42-3.77-1.77-7.3-3.84-9.84a33.42,33.42,0,0,0-7.27-6.47,37.26,37.26,0,0,0-7.21,6.27c-2,2.36-4.17,5.61-4.05,9.43a5.34,5.34,0,0,0,.34,1.62,6.55,6.55,0,0,0,3.59,3.41C9.84,33.8,7.1,32,6.07,29.34a6.78,6.78,0,0,1-.45-2.15C5.46,22.1,8.38,17.78,11,14.64A49.18,49.18,0,0,1,20.6,6.3a43.84,43.84,0,0,1,9.69,8.61C33.05,18.29,36,23,35.4,28Z"/></g></g></svg>